<svg xmlns="http://www.w3.org/2000/svg" viewBox="0 0 575.4 695.2"><style>.st0{display:none}.st2{display:inline}.st3{fill:#f1942f}.st4{fill:#f19630}.st5{fill:#d84327}.st6{fill:#902c20}.st7{fill:#c3452a}.st8{fill:#942c20}.st9{fill:#9a2e21}.st10{fill:#dc712c}.st11{fill:#b13425}.st12{fill:#cf5a2b}.st13{fill:#d86a2b}.st14{fill:#d24228}.st15{fill:#e8862e}.st16{fill:#e17c30}.st17{fill:#cb542a}.st18{fill:#d4642b}.st19{fill:#eb8c2f}.st20{fill:#9b2e21}.st21{fill:#bd3a27}.st22{fill:#c84e2a}.st23{fill:#a63123}.st24{fill:#ca4028}.st25{fill:#b73626}.st26{fill:#a12f22}.st27{fill:#c6492a}.st28{fill:#e0772f}.st29{fill:#d25f2b}.st30{fill:#ef9130}.st31{fill:#e6812e}.st32{fill:#db6f2b}.st33{fill:#de732c}.st34{fill:#c03c27}.st35{fill:#ab3324}.st36{fill:#c63d27}.st37{fill:#a93224}.st38{fill:#952d20}.st39{fill:#a03022}.st40{fill:#a33023}.st41{fill:#e0782f}.st42{fill:#c24329}.st43{fill:#b13525}.st44{fill:#e27c30}.st45{fill:#cc4128}.st46{fill:#b63826}.st47{fill:#d34428}.st48{fill:#be3e28}.st49{fill:#c74629}.st50{fill:#c5472a}.st51{fill:#cd572a}.st52{fill:#ca522a}.st53{fill:#c74d2a}.st54{fill:#d4632b}.st55{fill:#d05e2b}.st56{fill:#272220}.st57{fill:#fff}.st60,.st62{fill:none}.st62{stroke:#fff;stroke-width:3}.st63{fill:#231f20}</style><path fill="#f1942f" d="M-16.6 44h614v614h-614z" id="Layer_4"/><g id="Layer_1" class="st0"><g class="st2"><path class="st3" d="M107.8 265.3v9.2c0 .5-.1.7-.6.7h-2.5c-.6 0-.8-.1-.8-.7v-17.1-1.4c0-.4.1-.5.5-.5h2.7c.5 0 .7.1.7.7v9.1zM85.8 263.8c-1.2-2.7-4-3.9-6.8-3.1-1.1.3-2 .9-2.7 1.8-.2-.2-.1-.3-.1-.5v-5.8c0-.7-.2-.8-.8-.8-.8.1-1.7 0-2.5 0-.5 0-.6.1-.6.6v18.4c0 .5.1.7.7.6h2.7c.3 0 .5-.1.4-.5v-1.4c.5.8 1 1.3 1.6 1.6 2.8 1.3 6.5.8 8.1-2.7 1.2-2.6 1.2-5.4 0-8.2zm-3.1 4.2c0 1-.1 1.9-.6 2.8-.6 1.1-1.4 1.7-2.7 1.7-1.2 0-2.2-.5-2.7-1.6-1-2-1-4 0-5.9.5-1 1.4-1.5 2.6-1.6 1.2 0 2.1.5 2.7 1.6.5.9.7 2 .7 3zM70.4 272.4v-7.6c0-2-.8-3.2-2.8-3.8-2.2-.7-4.5-.7-6.7 0-1.8.6-3.1 1.8-3.4 3.8-.1.5.1.6.5.5h2.8c.4 0 .6-.1.7-.5.1-.6.5-1.1 1.1-1.4 1-.4 2-.4 2.9 0 .7.2 1 .8 1 1.7 0 .7-.4 1.1-1 1.3-.6.2-1.3.3-1.9.4-1.3.2-2.7.3-4 .7-1.8.7-2.6 1.9-2.6 3.9 0 1.9 1 3.3 2.7 3.8 2.4.7 4.6.4 6.6-1.1.1-.1.2-.2.3-.1 0 .2.1.4.1.6 0 .5.3.7.8.6h3.3c-.4-1-.4-1.9-.4-2.8zm-4.2-1.5c-.3 1-.9 1.6-1.9 1.8-.7.2-1.4.2-2.1 0-.8-.2-1.3-.7-1.4-1.4-.1-.9.2-1.5.9-1.9.5-.3 1.1-.4 1.7-.5 1-.2 1.9-.2 2.9-.7 0 1 .2 1.8-.1 2.7zM92.2 268.9h8.1c1.8 0 1.8 0 1.7-1.8-.4-5.5-6.1-8.5-10.8-5.6-2.8 1.8-4.1 5.6-3 9.1 1 3.2 3.8 5 7.3 4.9 3.1-.2 5.2-1.6 6.2-4.3.1-.4.1-.5-.3-.5h-2.5c-.3 0-.5.1-.7.4-.8 1.2-2.5 1.7-4.1 1.3-1.3-.3-2.1-1.4-2.2-2.9-.3-.5-.2-.6.3-.6zm-.5-3c.2-1.5 1.6-2.6 3.4-2.5 1.7.1 2.5 1 2.9 2.7.1.4-.2.3-.4.3h-5.4c-.5.1-.6-.1-.5-.5z"/><path class="st4" d="M45.7 277.8c-1.9.6-3.9 1-5.9 1.3-5.3.9-10.7 1.1-16.1 1.1-.5 0-.6-.1-.5-.6.5-2.1.9-4.3 1.4-6.4.1-.5.3-.6.8-.6 6.3 0 12.6-.5 18.8-1.9l1.2-.3c.3.3.2.6.2.9v5.4c-.1.3-.1.7.1 1.1zM44.5 257.4c.5-.1 1-.2 1.6-.3.2.2.2.4.2.6v6.1c-.1.4-.5.5-.8.6-.7.1-1.4.4-2.2.3-1.9.2-3.7.5-5.6.6-2.1.1-4.2.2-6.3.2-.5 0-.6-.1-.5-.6.1-.5.3-1.1.3-1.7-.1-.5.1-1 .2-1.5.2-.8.3-1.6.5-2.4.2-.8.3-.9 1.1-.9 2.5 0 5-.2 7.5-.5.3-.1.7 0 1-.1.6-.1 1.3-.2 1.9-.3.4-.1.8-.1 1.1-.1z"/><path class="st5" d="M43 254.8c-1.8-.3-3.5-.6-5.3-.8-.7-.1-1.4-.2-2.1-.2-.3 0-.5-.1-.4-.5l1.2-5.4c0-.2 0-.4.4-.4 2 .2 4.1.3 6.1.7.2.2.2.5.2.7-.1 1.9 0 3.8 0 5.7-.1 0-.1.1-.1.2zM40.6 258.1c-.5.2-1 .2-1.5.2-2 .2-4.1.4-6.2.3-.6 0-.7.2-.8.7-.3 1.3-.5 2.6-.9 3.9-.7 0-1.3-.1-2-.1-.3 0-.4-.1-.3-.4.5-2.3 1-4.5 1.4-6.8.1-.3.2-.4.4-.3 3.3.2 6.5.5 9.7 1.1.4.3.3.9.2 1.4z"/><path class="st6" d="M52.6 260.6c1.4.8 2.5 1.8 2.5 3.6 0 .8-.3 1.4-.9 2-.2.3-.5.5-.7.7-.2.2-.4.3-.6.5-.2.1-.4.1-.5-.1-.2-.6-.1-1.2-.1-1.8v-4c0-.4 0-.8.3-.9z"/><path class="st7" d="M54.1 266.2c.5-.6.9-1.2 1-2v7.5c0 .6-.2 1.2-.7 1.7-.4.1-.4-.3-.4-.5-.1-.5 0-1 0-1.4v-4.4c0-.4.1-.6.1-.9z"/><path class="st8" d="M52.6 260.6c-.3.5-.1 1.1-.1 1.6-.1 1.7 0 3.5 0 5.2 0 .1 0 .2-.1.3-.2.1-.3.2-.5.1-.1-.1-.3-.2-.4-.3-.1-.2-.2-.4-.2-.6v-4.8c0-.2 0-.3.1-.4l.6-.9c.1-.1.2-.3.4-.3 0 0 .1 0 .2.1z"/><path class="st9" d="M51.6 261.5c-.2.6-.1 1.2-.1 1.9v4.1l-1.2-.6c-.1-.2-.2-.4-.2-.7v-3.5c0-.4.3-.6.6-.7.2-.1.3-.2.5-.3 0-.2.1-.3.4-.2-.1-.1 0-.1 0 0z"/><path class="st6" d="M50.7 250.6c1.1.6 1.9 1.4 1.7 2.9-.1.4-.2.7-.4.9-.1.2-.3.3-.5.5-.2.1-.3.2-.6.3-.1 0-.2 0-.2-.1-.2-.2-.2-.4-.2-.7v-3.2c0-.2 0-.4.2-.6z"/><path class="st10" d="M48.1 256.5c.1-.1.2-.1.2-.3.2-.2.4-.1.6 0 .2.1.2.4.2.6 0 2 .1 4 0 6.1 0 .1-.1.2-.2.3-.3.1-.6.5-.9.1v-5.9c-.1-.3-.2-.7.1-.9z"/><path class="st11" d="M47.4 256c-.3 0-.5-.1-.8-.2-.2-.2-.2-.4-.2-.7v-5.3c0-.3-.1-.8.5-.7.3 0 .6.1.8.3-.2 1.9 0 3.8-.1 5.6 0 .3.1.6-.2 1z"/><path class="st12" d="M51.9 267.7c.2 0 .3-.1.5-.1.2.2.2.4.2.6 0 1.8.1 3.7 0 5.5 0 .4.1.8.1 1.2-.2.2-.5.4-.8.5-.4-.1-.3-.4-.3-.6v-6.3c0-.2.1-.4.2-.6 0 0 0-.1.1-.2z"/><path class="st13" d="M50 268.8c.1-.1.3-.2.5-.2.3.3.2.6.2.9v5.1c0 .5 0 1 .1 1.4-.3.2-.6.3-.9.4-.4-.5-.2-1.1-.2-1.6v-5.2c-.1-.4 0-.7.3-.8z"/><path class="st14" d="M43 254.8c-.3-.6-.1-1.3-.1-2v-4.7c.3 0 .5 0 .8.1.2.2.2.5.2.8v5.1c0 .3 0 .6-.2.8-.3 0-.5 0-.7-.1z"/><path class="st15" d="M46.4 270.1c.2-.2.5-.2.8-.3.3.3.2.6.2.9v5.2c0 .5 0 .9.1 1.4-.2.2-.5.2-.8.2-.5-.1-.3-.5-.3-.7v-4.7c-.1-.7-.2-1.4 0-2z"/><path class="st16" d="M48.6 276.9c-.2.2-.5.2-.8.3-.4 0-.4-.3-.4-.6v-6.4c0-.2.1-.4.2-.5.2-.1.4-.2.7-.2.3.3.2.6.2.9v5.1c0 .4 0 .9.1 1.4z"/><path class="st17" d="M52.7 274.9c-.4-.2-.3-.7-.3-1 .1-1.5 0-3 0-4.5 0-.6 0-1.2-.1-1.8 0-.1.1-.2.1-.2.1 0 .3-.1.4-.1.3 0 .4.2.4.5-.1 1.3.1 2.7 0 4 0 .7.1 1.3 0 2 0 .3 0 .6-.1.9-.1 0-.2.2-.4.2z"/><path class="st18" d="M50.8 276c-.4-.1-.3-.4-.3-.6v-6.8l.6-.3c.2.2.2.4.2.7v6.5c0 .1 0 .2-.1.3l-.4.2z"/><path class="st19" d="M46.4 270.1c.1.2.1.4.1.7v6.2c0 .2-.1.4.1.5-.1.1-.3.1-.5.1-.3.1-.4-.1-.5-.3-.1-.2-.1-.4-.1-.6v-5.6c0-.3 0-.7.2-.9.3-.1.5-.2.7-.1z"/><path class="st20" d="M49.4 249.9c.3.1.6.2.8.4.1 1.3 0 2.6 0 3.9 0 .4 0 .7.1 1.1.1.2-.1.4-.2.5-.1.1-.3.1-.4.2-.1 0-.2 0-.4-.1-.3-.2-.3-.5-.3-.8v-4.5c0-.2-.1-.6.4-.7z"/><path class="st21" d="M46 255.5c-.1 0-.3-.1-.4-.1-.4-.1-.5-.4-.5-.7v-5.5c0-.2 0-.5.3-.6.4 0 .7.1 1 .3-.3.3-.3.7-.3 1.2v4.6c.1.2.1.6-.1.8z"/><path class="st22" d="M53.2 274.6c-.3-.4-.1-.8-.1-1.2v-3.1-2.7c0-.2-.1-.3-.2-.3.2-.1.3-.3.5-.4.5 0 .4.4.4.7 0 1.4-.1 2.9 0 4.3 0 .7-.2 1.4 0 2.1-.1.2-.4.4-.6.6z"/><path class="st23" d="M48.6 256.3c-.1 0-.2-.1-.4-.1-.1 0-.2-.1-.3-.1-.2-.3-.2-.6-.2-.9v-4.8c0-.4 0-.8.3-1.1.3 0 .5.1.8.3-.1 2.1-.1 4.2 0 6.3.2.3-.1.4-.2.4z"/><path class="st24" d="M43.6 254.9v-6.7c.2 0 .5 0 .7.1.2.3.2.6.2.9v4.9c0 .4.1.8-.3 1-.2-.1-.4 0-.6-.2z"/><path class="st25" d="M46 255.5v-6c0-.4 0-.7.5-.7.2 0 .3 0 .4.1-.4.1-.3.4-.3.6v6.1c-.2.1-.4 0-.6-.1z"/><path class="st26" d="M48.9 256.1c-.3 0-.3-.3-.3-.5v-5.4c0-.2-.1-.5.3-.5.2 0 .4.1.6.2-.2.1-.2.4-.2.6v4.7c0 .2-.1.5.3.6 0 .2-.1.3-.3.3-.2.1-.3.1-.4 0z"/><path class="st27" d="M53.8 274c-.5-.6-.1-1.2-.1-1.8-.2-1.4.1-2.8-.1-4.1-.1-.4.4-.9-.2-1.3.2-.2.4-.4.7-.6.2.2.1.5.1.7v5.8c0 .2-.2.5.2.7-.1.2-.3.4-.6.6z"/><path class="st28" d="M48.6 276.9c-.4-.1-.3-.4-.3-.7v-6.8c.2-.1.4-.2.7-.2.1.4.1.8.1 1.2v5.7c0 .2 0 .4-.1.6-.1.1-.2.2-.4.2z"/><path class="st29" d="M51.3 275.7c-.2-.2-.1-.5-.1-.7v-6.8c.2-.1.3-.2.5-.3v6.8c0 .2-.1.5.1.7-.1.2-.3.3-.5.3z"/><path class="st30" d="M45.8 270.2v6.8c0 .3-.1.6.3.7-.1.1-.3.1-.4.1-.5 0-.4-.3-.4-.6v-6.8c.2-.2.3-.2.5-.2z"/><path class="st31" d="M47.7 269.6v6.8c0 .2-.1.5.2.7-.1.1-.2.1-.4.1-.4-.1-.3-.4-.3-.7v-6.8c.1 0 .3 0 .5-.1z"/><path class="st32" d="M50 268.8c-.4.6-.2 1.2-.2 1.8-.1 1.3.1 2.5 0 3.8 0 .7.1 1.4.1 2-.1.1-.2.1-.3.1-.4.1-.4-.1-.4-.4-.1-.3-.1-.7-.1-1 .1-1.8.1-3.6 0-5.4 0-.3 0-.5.3-.7.2-.1.4-.2.6-.2z"/><path class="st33" d="M49.4 269c-.2.3-.1.6-.1.9 0 .1.1.2.1.3-.1 1.5.1 3 0 4.6 0 .5-.2 1.2.3 1.6-.2.2-.4.2-.7.3-.2-.1-.1-.4-.1-.5v-6.4c0-.2 0-.4.1-.6.1-.1.2-.2.4-.2z"/><path class="st34" d="M45.5 248.6c-.2.1-.1.3-.1.5v5.7c0 .3.1.5.3.6-.3 0-.5-.1-.8-.2-.2-.3-.2-.6-.2-.9v-4.9c0-.3 0-.7.2-.9.1 0 .4 0 .6.1z"/><path class="st19" d="M46.1 263.9v-6.8c.1-.1.3-.1.5-.1.1.1.2.3.2.5 0 2.1.1 4.1 0 6.2-.1.2-.2.3-.3.4-.2-.1-.3-.1-.4-.2z"/><path class="st35" d="M48.1 249.4c-.1.4-.1.8-.1 1.1v5.6c-.2 0-.4 0-.5-.2v-6c0-.3-.1-.6.3-.7 0 .1.2.1.3.2z"/><path class="st36" d="M44.8 248.5v6.7c-.2-.1-.5 0-.7-.1.2-.3.1-.5.1-.8v-5.9c.3 0 .4 0 .6.1z"/><path class="st37" d="M47.9 263.4c.3-.1.5-.2.8-.2.2.8.2 1.7.1 2.6 0 .2-.1.4-.3.5-.4-.1-.8-.3-1.2-.4-.3-.6-.1-1.3-.2-1.9 0-.1 0-.1.1-.2 0-.1.1-.1.1-.2.3-.2.4-.3.6-.2z"/><path class="st38" d="M50.3 255.4c-.2 0-.3-.2-.3-.4v-4.4c0-.1 0-.3.2-.3s.4.1.5.3v3.9c0 .2-.1.5.3.6.1.2-.1.3-.2.4-.2 0-.4.1-.5-.1z"/><path class="st39" d="M50.3 262.5v4.4c-.3-.1-.5-.2-.8-.3-.2-.2-.2-.5-.2-.8v-2.7c0-.2.2-.4.4-.5.1-.1.2-.1.4-.2 0 0 .1 0 .2.1z"/><path class="st40" d="M49.4 262.9c.3.6.1 1.3.1 1.9v1.7l-.9-.3c.3-.9.1-1.9.1-2.8 0-.1 0-.2.1-.2l.1-.1c.1-.1.2-.2.4-.2 0-.1 0-.1.1 0z"/><path class="st15" d="M46.6 263.8V257c.1-.1.3-.1.4-.1.2.2.2.4.2.6v5.8c0 .1 0 .2-.1.3-.1.3-.2.3-.5.2z"/><path class="st31" d="M47 263.7v-6.8c.1-.1.2-.1.4-.1.2.2.2.5.2.7v5.3c0 .3 0 .5-.2.7v.1c-.1.2-.3.2-.4.1z"/><path class="st41" d="M47.9 263.4c-.1 0-.3.1-.4.1v-6.1c0-.3-.1-.6.3-.8.1-.1.2-.1.3-.1v6.1c0 .3 0 .5-.2.8z"/><path class="st42" d="M51.8 254.4c.2-.3.4-.6.5-.9 0 2.3.1 4.6 0 6.9-.1.1-.2.2-.2.3-.3-.1-.3-.3-.3-.6 0-1.9-.1-3.8 0-5.7z"/><path class="st43" d="M47 263.7h.4v2.1c-.3 0-.6-.1-.9-.3-.4-.4-.4-1.1-.1-1.6.1 0 .2-.1.3-.1.1 0 .2 0 .3-.1z"/><path class="st44" d="M47.8 256.6c-.2.3-.1.5-.1.8v5.3c0 .3 0 .5-.1.8h-.1v-6.8c0-.1.1-.1.3-.1z"/><path class="st45" d="M43.5 257.6c-.6.1-1.3.3-1.9.3-.6-.3-.4-.8-.1-1.2.7.1 1.3.3 2 .4.1.2.2.3 0 .5z"/><path class="st46" d="M46.4 263.9c0 .5-.1 1.1.1 1.6-.5-.1-1-.2-1.4-.4-.2-.4-.2-.7.3-.9.3-.1.5-.2.8-.3h.2z"/><path class="st47" d="M41.4 256.7c.1.4-.1.8.1 1.2-.3.2-.6.1-.9.1-.3-.5-.1-1-.1-1.5.3.1.6.1.9.2z"/><path class="st48" d="M45.3 264.2c-.3.2-.2.6-.3.9-.6-.1-1.2-.3-1.8-.4.7-.3 1.4-.4 2.1-.5z"/><path class="st49" d="M43.5 257.6c0-.2 0-.4-.1-.5.4 0 .8.1 1.2.3-.4.2-.8.2-1.1.2z"/><path class="st50" d="M51.8 254.4c.2.2.1.4.1.7v4.8c0 .3 0 .6.1.8-.1.3-.3.6-.5.8-.1-.1-.2-.3-.2-.5 0-2.1-.1-4.1 0-6.2.3-.2.4-.3.5-.4z"/><path class="st51" d="M50.3 262.5H50c.1-2 0-3.9.1-5.9 0-.3-.1-.6-.1-.9l.3-.3c.1 0 .3-.1.4-.1.4.1.3.4.3.6v5.5c0 .2 0 .4-.2.6-.2.1-.3.3-.5.5z"/><path class="st52" d="M50.8 262v-6c0-.2.1-.5-.1-.7l.3-.3h.1c.4.1.3.4.3.6v5.4c0 .2-.1.5-.2.7-.1.2-.2.3-.4.3z"/><path class="st53" d="M51.2 261.7v-6c0-.2.1-.5-.1-.7.1-.2.2-.2.4-.3.2.2.1.4.1.7v6c-.1.1-.3.2-.4.3z"/><path class="st13" d="M49.2 262.9c-.1 0-.3.1-.4.1v-6.1c0-.2.1-.6-.3-.6.1-.1.2-.2.3-.2h.4c.4.7.3 1.6.2 2.3 0 1.1.1 2.2 0 3.4 0 .3.1.7-.2 1.1z"/><path class="st54" d="M49.2 262.9c0-1.7.1-3.4.1-5.1 0-.6 0-1.1-.1-1.7.1-.1.2-.2.3-.2h.2c.5.1.3.5.3.8v5.1c0 .3 0 .7-.3.9-.1.1-.3.2-.4.3 0-.1 0-.1-.1-.1z"/><path class="st55" d="M49.8 262.6c.1-.2.1-.4.1-.6v-5.8c0-.2 0-.3-.1-.4.1 0 .2-.1.3-.1.4.3.2.7.2 1.1 0 1.2.1 2.4 0 3.6 0 .7.3 1.4-.2 2-.1.2-.2.2-.3.2z"/></g></g><g id="Layer_6"><g id="XMLID_1_"><path class="st56" d="M476 128.8v420.7l-.3 1.3c-.8 3.5-22.9 85.8-180.3 142.8l-3.5 1.3-3.5-1.2C122.8 639.4 102 554.2 101.2 550.6l-.3-2.3.1-418.3c.3-1.7 6.2-41.5 37.1-64.4 16.3-12 36.2-16.9 59.2-14.8C212.5 18.5 249.5-1.1 294.1.3c35 1.1 74.2 17 87.9 49.9 29.7.1 53.2 8.2 69.8 24.1 23.9 22.9 24.2 53.2 24.2 54.5zm-21.3 417.9V128.8c0-.2-.5-22.9-17.8-39.3-13.7-13-34.5-19-61.9-17.8l-8.5.3-2.2-8.2c-7.4-27.8-40.9-41.2-70.8-42.2-29.4-1-67.8 10.1-79.3 44.3l-2.9 8.5-8.9-1.5c-20.8-3.4-38.1-.1-51.6 9.8-21.9 16-27.9 45-28.7 49.6v414.5c1.3 4 7.5 21.5 28 43.5 21.6 23.2 63.5 56 141.5 82.1 74.1-27.4 114.5-60.2 135.5-83 19.7-21.5 26.2-38.4 27.6-42.7z"/><path class="st57" d="M454.7 128.8v417.9c-1.4 4.2-8 21.1-27.7 42.6-21 22.8-61.4 55.6-135.5 83-77.9-26.1-119.9-58.9-141.5-82.1-20.5-22-26.7-39.5-28-43.5V132.3c.8-4.6 6.8-33.6 28.7-49.6 13.4-9.9 30.8-13.2 51.6-9.8l8.9 1.5 2.9-8.5c11.5-34.1 50-45.2 79.3-44.3 29.9 1 63.4 14.3 70.8 42.2l2.2 8.2 8.5-.3c27.4-1.2 48.2 4.8 61.9 17.8 17.5 16.4 17.9 39.1 17.9 39.3z"/></g><path d="M396.4 183c-24.5 0-45.8-13.9-56.4-34.2-13.6 12.9-31.9 20.9-52.2 20.9-19.2 0-36.7-7.2-50.1-18.9-10.9 19.2-31.5 32.2-55.3 32.2-14.1 0-27.1-4.7-37.6-12.4v369.7s42.4 63.7 140.3 99.6c131.1-51.8 141.6-99.6 141.6-99.6V175.4c-9.1 4.9-19.4 7.6-30.3 7.6zm-227 52.8c0-7.1 5.7-12.8 12.8-12.8 7 0 12.8 5.7 12.8 12.8 0 7-5.7 12.8-12.8 12.8-7.1 0-12.8-5.7-12.8-12.8zm32.2 49.6c-9.8 0-17.8-8-17.8-17.8s8-17.8 17.8-17.8 17.8 8 17.8 17.8-7.9 17.8-17.8 17.8zm50.6-24.7c0 7.6-6.2 13.9-13.9 13.9-7.6 0-13.9-6.2-13.9-13.9v-42c0-7.6 6.2-13.9 13.9-13.9 7.6 0 13.9 6.2 13.9 13.9v42z" fill="#f6db4a"/><g opacity=".43"><path class="st60" d="M308.9 166.6v463.3c2.4-1.1 4.7-2.1 7-3.2V164.2c-2.3.9-4.6 1.7-7 2.4zM287.8 169.7c-19.2 0-36.7-7.2-50.1-18.9-10.9 19.2-31.5 32.2-55.3 32.2-14.1 0-27.1-4.7-37.6-12.4v369.7s42.4 63.7 140.3 99.6l3-1.2v-469c-.1-.1-.2 0-.3 0zM396.4 183c-3.2 0-6.3-.2-9.4-.7V586c35.5-26.8 39.7-45.7 39.7-45.7V175.4c-9.1 4.9-19.4 7.6-30.3 7.6z"/><path class="st3" d="M340 148.8c-6.9 6.6-15.1 11.8-24.1 15.4v462.5c32-14.6 54.8-28.5 71-40.8V182.3c-20.4-3-37.7-15.8-46.9-33.5zM288.1 169.6v469c7.3-2.9 14.3-5.8 20.8-8.7V166.6c-6.6 2-13.6 3-20.8 3z"/></g><path d="M396.4 183c-24.5 0-45.8-13.9-56.4-34.2-13.6 12.9-31.9 20.9-52.2 20.9-19.2 0-36.7-7.2-50.1-18.9-10.9 19.2-31.5 32.2-55.3 32.2-13.6 0-26.2-4.3-36.5-11.6 10.4 15.1 27.8 25.1 47.5 25.1 21.5 0 40.2-11.8 50.1-29.3 12.1 10.6 28 17.2 45.3 17.2 18.3 0 34.9-7.2 47.3-18.9 9.6 18.4 28.9 31 51.1 31 20.8 0 39-11.1 49.1-27.7-10.9 8.9-24.8 14.2-39.9 14.2z" fill="#e6e7e8"/><path class="st56" d="M575.4 449.4l-28.5-57.1 25.2-53.1h-44.4v-36.5H47.1v34.5H0l30.5 55.1L0 449.4h102.2l-43.9-36.5h456.3l-42.7 36.5z"/><path class="st57" d="M81.2 388.1l7.6-62.1h19.9c3.4 0 6.4.3 8.8 1 2.4.7 4.4 1.6 6 2.9 1.6 1.2 2.7 2.7 3.5 4.5.7 1.7 1.1 3.7 1.1 5.8 0 1.8-.2 3.5-.7 5.1-.5 1.6-1.2 3.1-2.2 4.5-1 1.4-2.3 2.6-3.8 3.7s-3.4 2-5.5 2.7c3.5.9 6.1 2.3 7.9 4.3 1.7 2 2.6 4.5 2.6 7.6 0 2.9-.5 5.5-1.6 8s-2.6 4.6-4.6 6.4c-2 1.8-4.4 3.2-7.3 4.2-2.9 1-6.1 1.5-9.8 1.5H81.2zm14.5-27.3l-2.3 18.7h10.5c2 0 3.7-.3 5.1-.8 1.4-.5 2.6-1.3 3.5-2.3.9-1 1.6-2.2 2.1-3.6.4-1.4.7-2.9.7-4.6 0-2.3-.7-4.1-2.1-5.4-1.4-1.3-3.8-2-7-2H95.7zm.9-7.7h8.2c3.8 0 6.8-.9 8.9-2.7 2.1-1.8 3.1-4.6 3.1-8.3 0-2.6-.7-4.5-2.2-5.7-1.5-1.2-3.8-1.8-6.9-1.8h-8.8l-2.3 18.5zM166.5 388.1H161c-1.3 0-2.2-.3-2.7-.9-.5-.6-.8-1.4-.8-2.3l.3-6c-1.9 3-4.1 5.4-6.6 7.2-2.4 1.8-5.1 2.6-8 2.6-1.7 0-3.2-.3-4.7-1-1.4-.7-2.7-1.6-3.8-2.9-1.1-1.3-1.9-2.9-2.5-4.9s-.9-4.3-.9-6.9c0-2.6.3-5.2 1-7.7s1.6-4.8 2.8-7c1.2-2.2 2.7-4.2 4.4-6 1.7-1.8 3.6-3.4 5.8-4.7 2.1-1.3 4.4-2.3 6.9-3.1 2.5-.7 5.1-1.1 7.8-1.1 2 0 4 .1 5.9.4 2 .3 3.9.8 5.9 1.5l-5.3 42.8zm-19.1-8c1.2 0 2.3-.4 3.5-1.2 1.1-.8 2.2-1.9 3.2-3.3s1.9-3.1 2.8-5c.9-1.9 1.6-4 2.2-6.2l1.7-13.3c-.8-.1-1.5-.1-2.1-.1-2.4 0-4.6.5-6.6 1.6s-3.8 2.6-5.3 4.4c-1.5 1.8-2.7 4-3.5 6.4-.8 2.4-1.3 5-1.3 7.7 0 3.1.5 5.4 1.5 6.8.9 1.5 2.2 2.2 3.9 2.2zM176.7 388.1l7.8-63.8h10.3l-3.5 28.5c2.1-2.9 4.4-5.2 6.9-6.9 2.5-1.7 5.2-2.5 8.1-2.5 1.8 0 3.5.3 5 1s2.8 1.7 3.8 3c1.1 1.3 1.9 3 2.4 5.1.6 2.1.9 4.5.9 7.3 0 2.5-.3 4.9-.8 7.3-.5 2.4-1.2 4.7-2.2 6.8-.9 2.1-2.1 4.1-3.4 5.9-1.3 1.8-2.8 3.4-4.4 4.7-1.6 1.3-3.3 2.3-5.1 3.1-1.8.7-3.7 1.1-5.6 1.1-2.3 0-4.3-.5-6-1.4-1.8-.9-3.2-2.1-4.4-3.7l-.3 1.5c-.2 1-.6 1.8-1.2 2.2-.5.5-1.4.7-2.6.7h-5.7zm25.5-36.4c-1.2 0-2.4.4-3.6 1.2-1.2.8-2.4 1.9-3.5 3.3s-2.2 3.1-3.1 5c-1 1.9-1.8 3.9-2.5 6.1l-1.3 10.5c1 1.1 2.1 1.8 3.3 2.2 1.3.4 2.5.6 3.7.6 1.9 0 3.6-.6 5.2-1.8 1.5-1.2 2.9-2.7 4-4.6 1.1-1.9 2-4 2.6-6.4.6-2.4.9-4.7.9-7.1 0-3.1-.5-5.4-1.5-6.9-1-1.3-2.4-2.1-4.2-2.1zM259.7 354.3c0 2-.4 3.8-1.2 5.4-.8 1.6-2.2 3.1-4.2 4.4-2 1.3-4.8 2.4-8.3 3.3s-7.9 1.7-13.3 2.2v.6c0 6.9 2.9 10.4 8.8 10.4 1.3 0 2.4-.1 3.3-.4 1-.2 1.8-.5 2.6-.9.7-.3 1.4-.7 2-1.2.6-.4 1.1-.8 1.6-1.2l1.5-.9c.5-.2 1-.4 1.6-.4.3 0 .7.1 1 .2.3.2.6.4.9.7l2.7 3.3c-1.5 1.5-3 2.8-4.5 4-1.5 1.1-2.9 2-4.5 2.7-1.5.7-3.1 1.2-4.8 1.6-1.7.3-3.5.5-5.5.5-2.6 0-4.9-.4-7-1.3-2.1-.9-3.9-2.1-5.4-3.7-1.5-1.6-2.6-3.5-3.5-5.8-.8-2.3-1.2-4.8-1.2-7.5 0-2.3.3-4.6.8-6.8s1.2-4.4 2.2-6.4c.9-2 2.1-3.9 3.5-5.5 1.4-1.7 2.9-3.1 4.7-4.4 1.7-1.2 3.6-2.2 5.7-2.9 2.1-.7 4.3-1 6.7-1 2.3 0 4.3.3 6.1 1 1.7.7 3.2 1.5 4.3 2.6 1.2 1 2 2.2 2.6 3.5.5 1.4.8 2.7.8 3.9zm-14.5-3.4c-1.4 0-2.8.3-4 .9-1.2.6-2.3 1.4-3.3 2.5s-1.8 2.3-2.6 3.8c-.7 1.5-1.3 3.1-1.7 4.8 3.5-.5 6.4-1 8.6-1.6 2.2-.6 3.8-1.2 5-1.9s2-1.4 2.4-2.2c.4-.8.6-1.6.6-2.5 0-.4-.1-.9-.3-1.3-.2-.5-.5-.9-.9-1.2-.4-.4-.9-.7-1.5-.9-.6-.3-1.4-.4-2.3-.4zM300.3 354.3c0 2-.4 3.8-1.2 5.4-.8 1.6-2.2 3.1-4.2 4.4-2 1.3-4.8 2.4-8.3 3.3s-7.9 1.7-13.3 2.2v.6c0 6.9 2.9 10.4 8.8 10.4 1.3 0 2.4-.1 3.3-.4 1-.2 1.8-.5 2.6-.9.7-.3 1.4-.7 2-1.2.6-.4 1.1-.8 1.6-1.2l1.5-.9c.5-.2 1-.4 1.6-.4.3 0 .7.1 1 .2.3.2.6.4.9.7l2.7 3.3c-1.5 1.5-3 2.8-4.5 4-1.5 1.1-2.9 2-4.5 2.7-1.5.7-3.1 1.2-4.8 1.6-1.7.3-3.5.5-5.5.5-2.6 0-4.9-.4-7-1.3-2.1-.9-3.9-2.1-5.4-3.7-1.5-1.6-2.6-3.5-3.5-5.8-.8-2.3-1.2-4.8-1.2-7.5 0-2.3.3-4.6.8-6.8s1.2-4.4 2.2-6.4c.9-2 2.1-3.9 3.5-5.5 1.4-1.7 2.9-3.1 4.7-4.4 1.7-1.2 3.6-2.2 5.7-2.9 2.1-.7 4.3-1 6.7-1 2.3 0 4.3.3 6.1 1 1.7.7 3.2 1.5 4.3 2.6 1.2 1 2 2.2 2.6 3.5.5 1.4.8 2.7.8 3.9zm-14.4-3.4c-1.4 0-2.8.3-4 .9-1.2.6-2.3 1.4-3.3 2.5s-1.8 2.3-2.6 3.8c-.7 1.5-1.3 3.1-1.7 4.8 3.5-.5 6.4-1 8.6-1.6 2.2-.6 3.8-1.2 5-1.9 1.2-.7 2-1.4 2.4-2.2.4-.8.6-1.6.6-2.5 0-.4-.1-.9-.3-1.3-.2-.5-.5-.9-.9-1.2-.4-.4-.9-.7-1.5-.9-.7-.3-1.5-.4-2.3-.4zM303.7 388.1l5.4-44.1h5.4c1 0 1.9.2 2.5.7.7.5 1 1.2 1 2.2v1c0 .5-.1 1.3-.1 2.3 0 1-.1 2.5-.2 4.4 1.8-3.5 3.8-6.1 5.9-8 2.1-1.9 4.4-2.8 6.7-2.8 1.2 0 2.4.3 3.6.8l-1.9 10.1c-1.4-.6-2.8-.9-4.1-.9-2.5 0-4.8 1.2-6.7 3.6-1.9 2.4-3.5 6.2-4.7 11.4l-2.3 19.3h-10.5zM335.5 388.1l7.7-63.8h10.4l-7.7 63.8h-10.4zM373.1 344.1l-5.3 44h-10.5l5.3-44h10.5zm2.6-12.8c0 .9-.2 1.8-.6 2.6-.4.8-.9 1.5-1.5 2.1-.6.6-1.3 1.1-2.1 1.4s-1.6.5-2.5.5c-.8 0-1.6-.2-2.4-.5-.8-.4-1.5-.8-2.1-1.4-.6-.6-1.1-1.3-1.4-2.1-.4-.8-.5-1.7-.5-2.6 0-.9.2-1.8.6-2.6s.9-1.6 1.5-2.2c.6-.6 1.3-1.1 2.1-1.5.8-.4 1.6-.5 2.4-.5.9 0 1.7.2 2.5.5.8.4 1.5.8 2.1 1.4.6.6 1.1 1.3 1.5 2.1.2.9.4 1.8.4 2.8zM413.1 388.1h-5.6c-1.3 0-2.2-.3-2.7-.9-.5-.6-.8-1.4-.8-2.3l.3-6c-1.9 3-4.1 5.4-6.6 7.2-2.4 1.8-5.1 2.6-8 2.6-1.7 0-3.2-.3-4.7-1-1.4-.7-2.7-1.6-3.8-2.9-1.1-1.3-1.9-2.9-2.5-4.9-.6-2-.9-4.3-.9-6.9 0-2.6.3-5.2 1-7.7s1.6-4.8 2.8-7c1.2-2.2 2.7-4.2 4.4-6 1.7-1.8 3.6-3.4 5.8-4.7 2.1-1.3 4.4-2.3 6.9-3.1 2.5-.7 5.1-1.1 7.8-1.1 2 0 4 .1 5.9.4 2 .3 3.9.8 5.9 1.5l-5.2 42.8zm-19.2-8c1.2 0 2.3-.4 3.5-1.2 1.1-.8 2.2-1.9 3.2-3.3s1.9-3.1 2.8-5c.9-1.9 1.6-4 2.2-6.2l1.7-13.3c-.8-.1-1.5-.1-2.1-.1-2.4 0-4.6.5-6.6 1.6s-3.8 2.6-5.3 4.4c-1.5 1.8-2.7 4-3.5 6.4-.8 2.4-1.3 5-1.3 7.7 0 3.1.5 5.4 1.5 6.8.9 1.5 2.2 2.2 3.9 2.2zM422.9 388.1l5.3-44.1h5.4c1.1 0 2 .3 2.6.8.6.5.9 1.4.9 2.6l-.3 5.7c2.2-3.3 4.7-5.7 7.4-7.4 2.7-1.6 5.5-2.4 8.4-2.4 1.6 0 3.1.3 4.4.9 1.3.6 2.5 1.4 3.4 2.6.9 1.1 1.7 2.5 2.2 4.2.5 1.6.8 3.5.8 5.7 0 .5 0 1.1-.1 1.6 0 .6-.1 1.1-.2 1.7l-3.3 28h-10.6c.6-4.8 1.1-8.9 1.5-12.3.4-3.4.7-6.2 1-8.4.3-2.2.5-4 .6-5.3.1-1.3.3-2.2.3-2.9.1-.7.1-1.1.1-1.3v-.5c0-1.9-.3-3.3-1-4.1-.7-.8-1.8-1.3-3.2-1.3-1.2 0-2.4.3-3.7 1-1.3.7-2.5 1.7-3.6 2.9-1.1 1.3-2.2 2.8-3.1 4.6-.9 1.8-1.7 3.7-2.3 5.9l-2.4 21.6h-10.5zM498.4 352.4c-.3.5-.6.8-.9 1-.3.2-.7.3-1.1.3-.5 0-1-.1-1.5-.4-.5-.3-1.1-.6-1.8-1s-1.4-.7-2.3-1c-.9-.3-1.9-.4-3.2-.4-2.3 0-4 .5-5.2 1.5-1.2 1-1.8 2.3-1.8 3.8 0 .9.3 1.6.8 2.3.5.6 1.2 1.2 2 1.6s1.7.9 2.7 1.3c1 .4 2.1.8 3.2 1.2 1.1.4 2.1.9 3.2 1.5 1 .6 1.9 1.2 2.7 2 .8.8 1.5 1.8 2 2.9.5 1.1.7 2.5.7 4.1 0 2.1-.4 4.1-1.3 6.1-.8 1.9-2.1 3.6-3.6 5s-3.5 2.6-5.7 3.4c-2.2.8-4.7 1.3-7.5 1.3-1.4 0-2.8-.1-4.1-.4-1.3-.3-2.5-.7-3.7-1.1-1.1-.5-2.2-1.1-3.1-1.7-.9-.7-1.7-1.4-2.4-2.1l2.6-4c.3-.5.7-.9 1.1-1.1.4-.3 1-.4 1.6-.4.6 0 1.1.2 1.6.6.5.4 1.1.8 1.7 1.2.7.4 1.5.9 2.4 1.2.9.4 2.1.6 3.6.6 1.2 0 2.2-.2 3.1-.5.9-.3 1.7-.7 2.3-1.3.6-.5 1.1-1.2 1.4-1.9.3-.7.5-1.5.5-2.3 0-1-.2-1.8-.7-2.4-.5-.6-1.1-1.2-2-1.7-.8-.5-1.7-.9-2.8-1.2-1-.4-2.1-.7-3.2-1.1-1.1-.4-2.1-.9-3.1-1.4-1-.5-1.9-1.2-2.7-2-.8-.8-1.5-1.7-2-2.9-.5-1.1-.7-2.5-.7-4.1 0-1.9.4-3.8 1.1-5.7.7-1.8 1.8-3.5 3.3-4.9 1.4-1.4 3.2-2.6 5.3-3.4 2.1-.9 4.5-1.3 7.2-1.3 2.8 0 5.3.5 7.4 1.4 2.2 1 4 2.2 5.5 3.7l-2.6 3.7z"/><g><path class="st62" d="M322 577.4c-9.1 2.9-18.4 4.5-27.8 6.1-25.1 4-50.4 5.3-75.8 5-2.3 0-2.9-.4-2.3-2.9 2.3-10.1 4.4-20.1 6.4-30.3.5-2.3 1.5-2.7 3.7-2.8 29.7-.2 59.2-2.3 88.2-9l5.7-1.2c1.2 1.2.9 2.8.9 4.3V572c.1 1.9.1 3.7 1 5.4zM316.4 481.6c2.4-.4 4.9-.9 7.3-1.3.8.8.9 1.8 1 2.8 0 9.1.1 18.3 0 27.4 0 .4-.1.8-.2 1.2-.7 1.8-2.4 2.2-4 2.6-3.4.5-6.7 1.8-10.2 1.6-8.7.8-17.4 2.4-26.2 2.9-9.8.5-19.6 1-29.4.7-2.3-.1-3-.6-2.3-3 .7-2.5 1.6-5.1 1.4-7.8-.5-2.4.5-4.6.9-6.9.7-3.8 1.5-7.6 2.4-11.4.9-3.6 1.5-4.2 5.3-4.2 11.8 0 23.6-.9 35.3-2.1 1.5-.4 3.1-.2 4.6-.6 3-.3 5.9-1 8.9-1.4 1.7-.4 3.5-.6 5.2-.5zM309.1 469.3c-8.3-1.3-16.5-2.7-24.8-4-3.2-.5-6.5-.8-9.7-1.1-1.6-.2-2.3-.5-1.8-2.4 1.9-8.5 3.7-17 5.5-25.4.2-1 .2-2 1.8-1.9 9.5.8 19.1 1.3 28.5 3.4.8 1 1.1 2.2 1 3.5-.3 8.9 0 17.9-.1 26.8-.1.3-.2.7-.4 1.1z"/><path class="st62" d="M298.1 484.6c-2.3 1.1-4.8.9-7.2 1-9.6.7-19.3 1.7-29 1.3-2.7-.1-3.4 1-3.9 3.3-1.4 6.1-2.2 12.4-4.2 18.3-3.2-.2-6.3-.4-9.5-.4-1.6 0-1.9-.6-1.6-2 2.3-10.7 4.6-21.3 6.8-32 .3-1.2.8-1.7 2.1-1.6 15.4 1.1 30.7 2.1 45.8 5.2 1.3 2.2 1 4.6.7 6.9zM354.5 496.4c6.4 4 11.8 8.7 11.5 17.1.1 3.8-1.5 6.8-4.1 9.4-.9 1.4-2.3 2.2-3.5 3.2-.9.8-1.9 1.5-3 2.1-.9.4-1.7.4-2.2-.6-.7-2.8-.4-5.7-.4-8.5 0-6.3-.1-12.7.1-19 .2-1.4 0-2.9 1.6-3.7z"/><path class="st62" d="M361.3 522.7c2.4-2.6 4-5.7 4.7-9.2 0 11.7.1 23.4 0 35.2 0 2.9-1.1 5.6-3.1 7.8-2 .4-1.8-1.2-1.9-2.3-.3-2.2-.1-4.5-.1-6.7V527c0-1.5.4-2.9.4-4.3zM354.5 496.4c-1.3 2.4-.4 5-.5 7.5-.2 8.1-.1 16.3-.1 24.4.2.6-.1 1.1-.6 1.5-.7.4-1.5.9-2.3.3-.7-.4-1.4-.9-2-1.3-.6-.8-.9-1.8-.9-2.9-.1-7.5-.1-15 .1-22.5 0-.7.2-1.4.5-2.1.8-1.6 2-2.9 2.8-4.4.5-.6.7-1.4 1.7-1.2.5.2.9.5 1.3.7z"/><path class="st62" d="M349.6 500.6c-1.1 2.9-.5 5.8-.5 8.8-.2 6.4-.1 12.9-.1 19.3-1.9-.9-3.7-1.8-5.6-2.7-.6-1-.9-2-.9-3.2 0-5.5-.2-10.9.1-16.4.2-1.7 1.3-2.7 2.6-3.5.7-.5 1.5-.9 2.2-1.5.5-.5 1.1-.9 1.8-1 .1.1.3.2.4.2zM345.3 449.6c5.1 3 9.1 6.7 8 13.5-.3 1.6-1 3.2-2.1 4.4-.6.8-1.4 1.5-2.2 2.2-.8.5-1.6 1.2-2.6 1.2-.4 0-.7-.1-1-.3-.9-.8-1-2-1-3.1-.1-5.1-.1-10.1 0-15.2 0-.9.1-1.9.9-2.7zM333 477.3c.5-.3.8-.6.7-1.2.9-.7 1.8-.3 2.7.2.9.7 1.1 1.7 1.1 2.7 0 9.5.3 19-.2 28.5-.1.6-.4 1.1-.9 1.5-1.5.4-2.8 2.5-4.4.4v-27.9c.1-1.5 0-3 1-4.2zM329.9 474.7c-1.3-.1-2.6-.5-3.7-1.2-.8-.9-.9-2-.9-3.2-.1-8.4-.1-16.7 0-25.1 0-1.4-.5-3.6 2.3-3.2 1.4 0 2.6.5 3.8 1.2-1 8.8-.2 17.6-.5 26.5-.1 1.8.4 3.6-1 5zM351 530.1c.8-.2 1.5-.5 2.3-.7.9.7 1 1.8 1 2.8 0 8.7.3 17.3-.1 26-.1 2 .4 3.8.4 5.8-1.1 1.1-2.4 1.9-3.8 2.4-1.7-.3-1.5-1.8-1.5-2.9-.1-9.8-.1-19.6 0-29.4 0-1 .3-2 .9-2.9.2-.4.5-.8.8-1.1zM342.2 535c.7-.7 1.6-.9 2.5-1.1 1.2 1.3.9 2.9.9 4.4v23.9c0 2.3.1 4.5.4 6.7-1.3 1-2.8 1.6-4.4 2-1.7-2.3-1.2-5-1.1-7.6.1-8.2.1-16.4-.1-24.6 0-1.8.4-3 1.8-3.7zM309.1 469.3c-1.2-3-.4-6.1-.5-9.2-.2-7.4-.1-14.8 0-22.2 1.3.1 2.5-.1 3.7.7.9 1.1 1 2.4 1 3.8v23.9c0 1.3.1 2.7-1 3.7-1.3-.1-2.3-.1-3.2-.7zM325 541.1c1.1-.7 2.3-1.2 3.7-1.2 1.2 1.2.9 2.8 1 4.3v24.4c0 2.1.1 4.3.4 6.4-1.2.7-2.4 1.1-3.8 1.2-2.1-.4-1.5-2.2-1.5-3.4-.2-7.4-.1-14.9-.1-22.3 0-3.1-.4-6.3.3-9.4zM335.6 573.1c-1.1.8-2.3 1.1-3.7 1.3-1.8-.1-1.7-1.6-1.7-2.7-.2-10-.1-20 0-30 0-.9.3-1.8.9-2.6 1-.5 2-1 3.1-1 1.2 1.2.9 2.8 1 4.3v23.8c0 2.3.1 4.6.4 6.9z"/><path class="st62" d="M354.7 563.9c-1.9-1.1-1.4-3.1-1.3-4.6.5-7.1-.1-14.2.2-21.3.1-2.9-.2-5.8-.3-8.6.2-.4.4-.7.7-1.1.6-.2 1.2-.5 1.8-.7 1.6-.1 1.9 1.1 1.8 2.2-.4 6.3.2 12.5-.2 18.8-.2 3.1.4 6.3.2 9.4-.1 1.4.1 2.8-.5 4.2-.7.8-1.4 1.5-2.4 1.7zM346 568.8c-1.9-.3-1.3-1.8-1.3-2.9v-32.1c1-.5 2-1 3-1.4.9.8 1 2 1 3.1.1 10.2 0 20.4 0 30.6 0 .5-.2 1-.3 1.5-.6.7-1.4 1.1-2.4 1.2zM325 541.1c.6 1 .6 2.1.6 3.2v29.3c0 .9-.2 1.9.7 2.5-.6.6-1.5.6-2.3.7-1.4.5-1.9-.3-2.2-1.4-.3-1-.3-2-.3-3v-26.3c0-1.5-.1-3.1 1-4.4.8-.6 1.6-.7 2.5-.6zM339.3 446.4c1.4.3 2.6.9 3.7 1.8.3 6.1 0 12.2.1 18.3 0 1.7 0 3.5.4 5.1.3 1.1-.3 1.7-1.1 2.2-.6.4-1.3.7-2 .8-.6.1-1.1 0-1.7-.2-1.2-.9-1.2-2.3-1.2-3.6-.1-7-.1-14.1 0-21.1.2-1.2-.3-3 1.8-3.3zM323.2 472.8c-.6-.2-1.2-.4-1.9-.6-1.7-.4-2.1-1.7-2.1-3.2.1-8.6-.2-17.3 0-25.9 0-1.1-.2-2.6 1.6-2.8 1.7.1 3.3.5 4.9 1.3-1.3 1.6-1.6 3.4-1.6 5.4v21.4c0 1.5.3 3.1-.9 4.4z"/><path class="st62" d="M357.1 562.3c-1.4-1.7-.5-3.8-.5-5.5.1-4.9 0-9.8.1-14.6.1-4.3-.1-8.6.2-12.8.1-.8-.5-1.3-1.2-1.6l2.4-1.8c2.2.2 2.1 1.8 2.1 3.3-.1 6.8-.4 13.6.1 20.4.2 3.4-.7 6.7-.2 10.1-.7 1-1.8 1.8-3 2.5zM335.4 476.6c-.6-.2-1.1-.3-1.7-.5-.5-.2-.9-.3-1.4-.5-.9-1.2-.9-2.7-.9-4.1v-22.6c0-1.8-.2-3.7 1.6-5 1.3.2 2.5.6 3.6 1.4-.4 9.8-.7 19.7.1 29.5.5 1.3-.5 1.4-1.3 1.8zM312.1 469.9v-31.5c1.1 0 2.1-.1 3.1.6 1 1.2 1 2.6 1 4.1V466c0 1.7.3 3.6-1.6 4.6-.9-.2-1.8 0-2.5-.7zM323.2 472.8v-28c0-1.8.1-3.3 2.5-3.2.7 0 1.4 0 2 .6-1.9.3-1.3 1.8-1.4 2.9v28.5c-1.2.1-2.1-.4-3.1-.8z"/><path class="st62" d="M336.8 475.4c-1.5-.2-1.3-1.3-1.3-2.3v-25.4c0-1-.3-2.2 1.2-2.4 1 .1 1.9.5 2.6 1.1-1.1.7-.8 1.8-.8 2.8v22.3c0 1-.5 2.4 1.2 2.7.1 1-.6 1.3-1.3 1.6-.5.1-1.1.1-1.6-.4zM360.1 559.6c-2.4-2.6-.2-5.6-.6-8.4-.9-6.4.6-13-.5-19.4-.3-2 1.9-4.3-.8-6 1-1 2.1-2 3.1-3 .9.9.5 2.1.5 3.2 0 9.2 0 18.3.1 27.5 0 1.1-.7 2.5 1 3.1-.6 1.2-1.5 2.2-2.8 3zM335.6 573.1c-2-.4-1.3-2-1.3-3.2V538c.9-.6 2-1 3.1-1.2.6 1.9.3 3.8.3 5.7.1 8.9 0 17.9 0 26.8 0 1 0 2-.3 3-.5.7-1.1.8-1.8.8zM348.5 567.6c-1.2-.9-.7-2.3-.7-3.4 0-10.6 0-21.2-.1-31.8.8-.4 1.6-.9 2.4-1.3 0 10.7 0 21.4.1 32 0 1.1-.4 2.3.6 3.2-.6.7-1.4 1.1-2.3 1.3zM322.6 541.7v32c0 1.2-.6 2.8 1.4 3.1-.6.6-1.3.6-2 .6-2.3.1-1.9-1.6-1.9-3v-32.1c.7-.5 1.6-.7 2.5-.6zM331.1 539.1c0 10.6 0 21.2.1 31.9 0 1.2-.5 2.5.8 3.4-.5.6-1.2.6-1.8.6-2-.4-1.4-2-1.4-3.2v-31.9c.6-.6 1.5-.7 2.3-.8z"/><path class="st62" d="M342.2 535c-1.9 2.6-.7 5.5-.9 8.3-.3 6 .2 12-.2 18-.2 3.2.3 6.4.5 9.5-.3.4-.7.5-1.2.5-1.7.7-1.9-.7-2.1-1.7-.3-1.6-.6-3.2-.5-4.9.3-8.4.6-16.9-.1-25.3-.1-1.3.2-2.4 1.4-3.2 1-.7 2-1.1 3.1-1.2z"/><path class="st62" d="M339.2 536.2c-.8 1.4-.7 2.9-.5 4.4.1.5.4 1 .4 1.5-.4 7.1.3 14.3-.2 21.4-.2 2.5-.9 5.6 1.6 7.7-.9.7-2 1.1-3.1 1.2-.9-.7-.7-1.7-.7-2.5v-30.1c0-1 0-2 .6-3 .6-.3 1.1-.7 1.9-.6zM320.8 440.3c-.8.6-.7 1.4-.7 2.2v26.8c0 1.2.3 2.2 1.2 2.9-1.3 0-2.5-.5-3.7-1-1-1.3-.9-2.9-.9-4.4v-23c0-1.5-.2-3.1 1-4.3 1.1.2 2.2.1 3.1.8zM323.8 512.3v-32c.7-.6 1.6-.6 2.4-.7.7.6.9 1.4.9 2.2-.1 9.7.3 19.5-.2 29.2-.2.8-.7 1.4-1.5 1.7-.6 0-1.1 0-1.6-.4zM333.1 443.9c-.6 1.8-.7 3.6-.7 5.4v26.2c-.9-.1-1.7-.2-2.4-.8v-28.2c0-1.2-.6-2.8 1.4-3.2.6.1 1.2.1 1.7.6z"/><path class="st62" d="M317.7 439.6c0 10.6-.1 21.1-.1 31.7-1-.3-2.2.2-3.1-.6.7-1.2.7-2.5.7-3.8v-27.7c.9-.1 1.8-.2 2.5.4zM332.4 509.8c1.2-.4 2.5-.8 3.7-1.2 1.1 4 1 8 .7 12-.1.9-.4 1.8-1.3 2.3-1.8-.7-3.7-1.3-5.5-2-1.6-2.9-.7-6-.8-9 0-.3.1-.7.3-1 .1-.3.4-.6.6-.8.7-.4 1.5-.7 2.3-.3zM343.5 472.3c-1.1-.1-1.2-.8-1.2-1.7v-20.8c0-.6.2-1.2.8-1.6.9.2 1.7.6 2.3 1.3v18.2c0 1-.5 2.4 1.2 2.7.3 1-.5 1.2-1 1.7-.8.4-1.4.9-2.1.2zM343.4 505.4c0 6.9 0 13.7-.1 20.6-1.2-.5-2.4-1-3.6-1.6-1-1.1-.9-2.4-.9-3.8 0-4.2 0-8.4-.1-12.5.1-1.2.8-1.8 1.7-2.3.5-.3 1.1-.6 1.7-.7.5 0 1 0 1.3.3z"/><path class="st62" d="M339.2 507.4c1.2 2.9.4 6 .6 8.9.1 2.7 0 5.4 0 8.2-1.5-.5-2.9-1.1-4.4-1.6 1.4-4.3.4-8.7.4-13.1 0-.4.2-.8.3-1.2l.6-.6c.4-.6 1-1 1.7-1 .3 0 .6.2.8.4zM326.3 511.6v-32.1c.5-.5 1.2-.5 1.9-.5.8.8.9 1.8.9 2.8v27.5c0 .5-.1 1-.3 1.5-.6 1.1-1.4 1.5-2.5.8z"/><path class="st62" d="M328.1 511v-32c.5-.6 1.2-.6 1.9-.6 1 1 .9 2.2.9 3.4v25.1c0 1.2 0 2.5-.8 3.5 0 .2 0 .3-.1.5-.7.6-1.3.6-1.9.1z"/><path class="st62" d="M332.4 509.8l-1.8.6v-28.7c0-1.4-.4-2.9 1.2-3.8.3-.4.7-.6 1.2-.5V506c0 1.2.2 2.6-.6 3.8zM350.8 467.4c.8-1.4 1.7-2.9 2.5-4.3.2 10.9.3 21.7-.1 32.6-.4.4-.8.8-1.2 1.3-1.2-.5-1.5-1.6-1.5-2.8.1-9-.2-17.9.3-26.8zM328.1 511c.6 0 1.2-.1 1.8-.1v9.9c-1.5-.1-2.9-.6-4.3-1.3-1.8-2-2-5-.6-7.3.4-.2.8-.5 1.2-.7.7.1 1.4.2 1.9-.5z"/><path class="st62" d="M331.8 477.8c-.7 1.2-.6 2.5-.6 3.9v25.1c0 1.2.1 2.5-.6 3.6-.2.1-.4.1-.6.1v-32c.4-.6 1.1-.7 1.8-.7zM311.5 482.7c-3 .6-6 1.4-9.1 1.3-2.6-1.6-1.7-3.6-.7-5.6 3.1.6 6.1 1.2 9.2 1.8 1 .7 1.4 1.4.6 2.5zM325 512.3c.1 2.4-.4 4.9.6 7.3-2.3-.5-4.6-.9-6.8-1.8-1.2-1.9-1.2-3.4 1.2-4.2 1.2-.4 2.5-.8 3.7-1.3h1.3z"/><path class="st62" d="M301.7 478.5c.3 1.9-.7 3.9.7 5.6-1.3 1-2.9.4-4.3.6-1.3-2.2-.4-4.6-.6-6.9 1.4 0 2.9 0 4.2.7zM320.1 513.5c-1.6 1.1-1.2 2.7-1.2 4.2-2.9-.6-5.7-1.3-8.6-1.9 3.1-1.2 6.5-1.6 9.8-2.3zM311.5 482.7c.1-.9-.2-1.7-.6-2.4 1.9.1 3.8.5 5.5 1.3-1.5.8-3.2.9-4.9 1.1zM350.8 467.4c1.1.9.6 2.1.7 3.1v22.6c0 1.3-.1 2.7.6 3.8-.4 1.5-1.3 2.7-2.5 3.7v-.1c-.7-.6-.9-1.4-.9-2.2.1-9.7-.3-19.4.2-29.1.6-.6 1.3-1.2 1.9-1.8zM343.4 505.4c-.4 0-.8.1-1.2.1.5-9.3-.1-18.5.3-27.8.1-1.4-.3-2.8-.4-4.2.4-.4.9-.8 1.3-1.2l1.8-.6c1.7.3 1.5 1.7 1.5 2.9.1 8.6 0 17.1 0 25.7 0 1.1-.2 2-.9 2.9-.7.7-1.5 1.5-2.4 2.2z"/><path class="st62" d="M346 503.1c0-9.4 0-18.8-.1-28.2 0-1.1.4-2.3-.6-3.2l1.2-1.2h.6c1.7.3 1.5 1.7 1.5 2.9.1 8.4 0 16.9 0 25.3 0 1.2-.4 2.2-.9 3.2-.3.7-.9 1.1-1.7 1.2z"/><path class="st62" d="M347.8 501.8v-28.2c0-1.1.4-2.3-.6-3.2.4-.8 1-1.2 1.8-1.3 1.1.9.7 2.1.7 3.1v28.2c-.7.6-1.3 1-1.9 1.4zM338.5 507.3c-.6.2-1.2.5-1.8.7v-28.5c0-1.1.6-2.6-1.3-3 .5-.4.9-.8 1.4-1.2.6 0 1.2-.1 1.7-.1 2.1 3.5 1.2 7.3 1.1 11-.1 5.3.3 10.5 0 15.8-.1 1.9.1 3.7-1.1 5.3z"/><path class="st62" d="M338.5 507.3c.2-8 .6-16 .4-24-.1-2.6.2-5.4-.4-8 .4-.4.9-.8 1.3-1.1h1.2c2.1.6 1.5 2.5 1.5 3.8-.1 8-.1 16 0 24 0 1.5-.1 3.1-1.4 4.2l-1.8 1.2c-.3-.1-.6-.1-.8-.1z"/><path class="st62" d="M341 506.1c.4-.8.6-1.7.6-2.6v-27.4c0-.7 0-1.4-.6-1.9l1.2-.6c1.8 1.5 1 3.5 1.1 5.3 0 5.7.3 11.4-.1 17.1-.2 3.2 1.3 6.6-.9 9.6-.3.4-.8.5-1.3.5z"/><g><path class="st4" d="M322 577.4c-9.1 2.9-18.4 4.5-27.8 6.1-25.1 4-50.4 5.3-75.8 5-2.3 0-2.9-.4-2.3-2.9 2.3-10.1 4.4-20.1 6.4-30.3.5-2.3 1.5-2.7 3.7-2.8 29.7-.2 59.2-2.3 88.2-9l5.7-1.2c1.2 1.2.9 2.8.9 4.3V572c.1 1.9.1 3.7 1 5.4zM316.4 481.6c2.4-.4 4.9-.9 7.3-1.3.8.8.9 1.8 1 2.8 0 9.1.1 18.3 0 27.4 0 .4-.1.8-.2 1.2-.7 1.8-2.4 2.2-4 2.6-3.4.5-6.7 1.8-10.2 1.6-8.7.8-17.4 2.4-26.2 2.9-9.8.5-19.6 1-29.4.7-2.3-.1-3-.6-2.3-3 .7-2.5 1.6-5.1 1.4-7.8-.5-2.4.5-4.6.9-6.9.7-3.8 1.5-7.6 2.4-11.4.9-3.6 1.5-4.2 5.3-4.2 11.8 0 23.6-.9 35.3-2.1 1.5-.4 3.1-.2 4.6-.6 3-.3 5.9-1 8.9-1.4 1.7-.4 3.5-.6 5.2-.5z"/><path class="st5" d="M309.1 469.3c-8.3-1.3-16.5-2.7-24.8-4-3.2-.5-6.5-.8-9.7-1.1-1.6-.2-2.3-.5-1.8-2.4 1.9-8.5 3.7-17 5.5-25.4.2-1 .2-2 1.8-1.9 9.5.8 19.1 1.3 28.5 3.4.8 1 1.1 2.2 1 3.5-.3 8.9 0 17.9-.1 26.8-.1.3-.2.7-.4 1.1zM298.1 484.6c-2.3 1.1-4.8.9-7.2 1-9.6.7-19.3 1.7-29 1.3-2.7-.1-3.4 1-3.9 3.3-1.4 6.1-2.2 12.4-4.2 18.3-3.2-.2-6.3-.4-9.5-.4-1.6 0-1.9-.6-1.6-2 2.3-10.7 4.6-21.3 6.8-32 .3-1.2.8-1.7 2.1-1.6 15.4 1.1 30.7 2.1 45.8 5.2 1.3 2.2 1 4.6.7 6.9z"/><path class="st6" d="M354.5 496.4c6.4 4 11.8 8.7 11.5 17.1.1 3.8-1.5 6.8-4.1 9.4-.9 1.4-2.3 2.2-3.5 3.2-.9.8-1.9 1.5-3 2.1-.9.4-1.7.4-2.2-.6-.7-2.8-.4-5.7-.4-8.5 0-6.3-.1-12.7.1-19 .2-1.4 0-2.9 1.6-3.7z"/><path class="st7" d="M361.3 522.7c2.4-2.6 4-5.7 4.7-9.2 0 11.7.1 23.4 0 35.2 0 2.9-1.1 5.6-3.1 7.8-2 .4-1.8-1.2-1.9-2.3-.3-2.2-.1-4.5-.1-6.7V527c0-1.5.4-2.9.4-4.3z"/><path class="st8" d="M354.5 496.4c-1.3 2.4-.4 5-.5 7.5-.2 8.1-.1 16.3-.1 24.4.2.6-.1 1.1-.6 1.5-.7.4-1.5.9-2.3.3-.7-.4-1.4-.9-2-1.3-.6-.8-.9-1.8-.9-2.9-.1-7.5-.1-15 .1-22.5 0-.7.2-1.4.5-2.1.8-1.6 2-2.9 2.8-4.4.5-.6.7-1.4 1.7-1.2.5.2.9.5 1.3.7z"/><path class="st9" d="M349.6 500.6c-1.1 2.9-.5 5.8-.5 8.8-.2 6.4-.1 12.9-.1 19.3-1.9-.9-3.7-1.8-5.6-2.7-.6-1-.9-2-.9-3.2 0-5.5-.2-10.9.1-16.4.2-1.7 1.3-2.7 2.6-3.5.7-.5 1.5-.9 2.2-1.5.5-.5 1.1-.9 1.8-1 .1.1.3.2.4.2z"/><path class="st6" d="M345.3 449.6c5.1 3 9.1 6.7 8 13.5-.3 1.6-1 3.2-2.1 4.4-.6.8-1.4 1.5-2.2 2.2-.8.5-1.6 1.2-2.6 1.2-.4 0-.7-.1-1-.3-.9-.8-1-2-1-3.1-.1-5.1-.1-10.1 0-15.2 0-.9.1-1.9.9-2.7z"/><path class="st10" d="M333 477.3c.5-.3.8-.6.7-1.2.9-.7 1.8-.3 2.7.2.9.7 1.1 1.7 1.1 2.7 0 9.5.3 19-.2 28.5-.1.6-.4 1.1-.9 1.5-1.5.4-2.8 2.5-4.4.4v-27.9c.1-1.5 0-3 1-4.2z"/><path class="st11" d="M329.9 474.7c-1.3-.1-2.6-.5-3.7-1.2-.8-.9-.9-2-.9-3.2-.1-8.4-.1-16.7 0-25.1 0-1.4-.5-3.6 2.3-3.2 1.4 0 2.6.5 3.8 1.2-1 8.8-.2 17.6-.5 26.5-.1 1.8.4 3.6-1 5z"/><path class="st12" d="M351 530.1c.8-.2 1.5-.5 2.3-.7.9.7 1 1.8 1 2.8 0 8.7.3 17.3-.1 26-.1 2 .4 3.8.4 5.8-1.1 1.1-2.4 1.9-3.8 2.4-1.7-.3-1.5-1.8-1.5-2.9-.1-9.8-.1-19.6 0-29.4 0-1 .3-2 .9-2.9.2-.4.5-.8.8-1.1z"/><path class="st13" d="M342.2 535c.7-.7 1.6-.9 2.5-1.1 1.2 1.3.9 2.9.9 4.4v23.9c0 2.3.1 4.5.4 6.7-1.3 1-2.8 1.6-4.4 2-1.7-2.3-1.2-5-1.1-7.6.1-8.2.1-16.4-.1-24.6 0-1.8.4-3 1.8-3.7z"/><path class="st14" d="M309.1 469.3c-1.2-3-.4-6.1-.5-9.2-.2-7.4-.1-14.8 0-22.2 1.3.1 2.5-.1 3.7.7.9 1.1 1 2.4 1 3.8v23.9c0 1.3.1 2.7-1 3.7-1.3-.1-2.3-.1-3.2-.7z"/><path class="st15" d="M325 541.1c1.1-.7 2.3-1.2 3.7-1.2 1.2 1.2.9 2.8 1 4.3v24.4c0 2.1.1 4.3.4 6.4-1.2.7-2.4 1.1-3.8 1.2-2.1-.4-1.5-2.2-1.5-3.4-.2-7.4-.1-14.9-.1-22.3 0-3.1-.4-6.3.3-9.4z"/><path class="st16" d="M335.6 573.1c-1.1.8-2.3 1.1-3.7 1.3-1.8-.1-1.7-1.6-1.7-2.7-.2-10-.1-20 0-30 0-.9.3-1.8.9-2.6 1-.5 2-1 3.1-1 1.2 1.2.9 2.8 1 4.3v23.8c0 2.3.1 4.6.4 6.9z"/><path class="st17" d="M354.7 563.9c-1.9-1.1-1.4-3.1-1.3-4.6.5-7.1-.1-14.2.2-21.3.1-2.9-.2-5.8-.3-8.6.2-.4.4-.7.7-1.1.6-.2 1.2-.5 1.8-.7 1.6-.1 1.9 1.1 1.8 2.2-.4 6.3.2 12.5-.2 18.8-.2 3.1.4 6.3.2 9.4-.1 1.4.1 2.8-.5 4.2-.7.8-1.4 1.5-2.4 1.7z"/><path class="st18" d="M346 568.8c-1.9-.3-1.3-1.8-1.3-2.9v-32.1c1-.5 2-1 3-1.4.9.8 1 2 1 3.1.1 10.2 0 20.4 0 30.6 0 .5-.2 1-.3 1.5-.6.7-1.4 1.1-2.4 1.2z"/><path class="st19" d="M325 541.1c.6 1 .6 2.1.6 3.2v29.3c0 .9-.2 1.9.7 2.5-.6.6-1.5.6-2.3.7-1.4.5-1.9-.3-2.2-1.4-.3-1-.3-2-.3-3v-26.3c0-1.5-.1-3.1 1-4.4.8-.6 1.6-.7 2.5-.6z"/><path class="st20" d="M339.3 446.4c1.4.3 2.6.9 3.7 1.8.3 6.1 0 12.2.1 18.3 0 1.7 0 3.5.4 5.1.3 1.1-.3 1.7-1.1 2.2-.6.4-1.3.7-2 .8-.6.1-1.1 0-1.7-.2-1.2-.9-1.2-2.3-1.2-3.6-.1-7-.1-14.1 0-21.1.2-1.2-.3-3 1.8-3.3z"/><path class="st21" d="M323.2 472.8c-.6-.2-1.2-.4-1.9-.6-1.7-.4-2.1-1.7-2.1-3.2.1-8.6-.2-17.3 0-25.9 0-1.1-.2-2.6 1.6-2.8 1.7.1 3.3.5 4.9 1.3-1.3 1.6-1.6 3.4-1.6 5.4v21.4c0 1.5.3 3.1-.9 4.4z"/><path class="st22" d="M357.1 562.3c-1.4-1.7-.5-3.8-.5-5.5.1-4.9 0-9.8.1-14.6.1-4.3-.1-8.6.2-12.8.1-.8-.5-1.3-1.2-1.6l2.4-1.8c2.2.2 2.1 1.8 2.1 3.3-.1 6.8-.4 13.6.1 20.4.2 3.4-.7 6.7-.2 10.1-.7 1-1.8 1.8-3 2.5z"/><path class="st23" d="M335.4 476.6c-.6-.2-1.1-.3-1.7-.5-.5-.2-.9-.3-1.4-.5-.9-1.2-.9-2.7-.9-4.1v-22.6c0-1.8-.2-3.7 1.6-5 1.3.2 2.5.6 3.6 1.4-.4 9.8-.7 19.7.1 29.5.5 1.3-.5 1.4-1.3 1.8z"/><path class="st24" d="M312.1 469.9v-31.5c1.1 0 2.1-.1 3.1.6 1 1.2 1 2.6 1 4.1V466c0 1.7.3 3.6-1.6 4.6-.9-.2-1.8 0-2.5-.7z"/><path class="st25" d="M323.2 472.8v-28c0-1.8.1-3.3 2.5-3.2.7 0 1.4 0 2 .6-1.9.3-1.3 1.8-1.4 2.9v28.5c-1.2.1-2.1-.4-3.1-.8z"/><path class="st26" d="M336.8 475.4c-1.5-.2-1.3-1.3-1.3-2.3v-25.4c0-1-.3-2.2 1.2-2.4 1 .1 1.9.5 2.6 1.1-1.1.7-.8 1.8-.8 2.8v22.3c0 1-.5 2.4 1.2 2.7.1 1-.6 1.3-1.3 1.6-.5.1-1.1.1-1.6-.4z"/><path class="st27" d="M360.1 559.6c-2.4-2.6-.2-5.6-.6-8.4-.9-6.4.6-13-.5-19.4-.3-2 1.9-4.3-.8-6 1-1 2.1-2 3.1-3 .9.9.5 2.1.5 3.2 0 9.2 0 18.3.1 27.5 0 1.1-.7 2.5 1 3.1-.6 1.2-1.5 2.2-2.8 3z"/><path class="st28" d="M335.6 573.1c-2-.4-1.3-2-1.3-3.2V538c.9-.6 2-1 3.1-1.2.6 1.9.3 3.8.3 5.7.1 8.9 0 17.9 0 26.8 0 1 0 2-.3 3-.5.7-1.1.8-1.8.8z"/><path class="st29" d="M348.5 567.6c-1.2-.9-.7-2.3-.7-3.4 0-10.6 0-21.2-.1-31.8.8-.4 1.6-.9 2.4-1.3 0 10.7 0 21.4.1 32 0 1.1-.4 2.3.6 3.2-.6.7-1.4 1.1-2.3 1.3z"/><path class="st30" d="M322.6 541.7v32c0 1.2-.6 2.8 1.4 3.1-.6.6-1.3.6-2 .6-2.3.1-1.9-1.6-1.9-3v-32.1c.7-.5 1.6-.7 2.5-.6z"/><path class="st31" d="M331.1 539.1c0 10.6 0 21.2.1 31.9 0 1.2-.5 2.5.8 3.4-.5.6-1.2.6-1.8.6-2-.4-1.4-2-1.4-3.2v-31.9c.6-.6 1.5-.7 2.3-.8z"/><path class="st32" d="M342.2 535c-1.9 2.6-.7 5.5-.9 8.3-.3 6 .2 12-.2 18-.2 3.2.3 6.4.5 9.5-.3.4-.7.5-1.2.5-1.7.7-1.9-.7-2.1-1.7-.3-1.6-.6-3.2-.5-4.9.3-8.4.6-16.9-.1-25.3-.1-1.3.2-2.4 1.4-3.2 1-.7 2-1.1 3.1-1.2z"/><path class="st33" d="M339.2 536.2c-.8 1.4-.7 2.9-.5 4.4.1.5.4 1 .4 1.5-.4 7.1.3 14.3-.2 21.4-.2 2.5-.9 5.6 1.6 7.7-.9.7-2 1.1-3.1 1.2-.9-.7-.7-1.7-.7-2.5v-30.1c0-1 0-2 .6-3 .6-.3 1.1-.7 1.9-.6z"/><path class="st34" d="M320.8 440.3c-.8.6-.7 1.4-.7 2.2v26.8c0 1.2.3 2.2 1.2 2.9-1.3 0-2.5-.5-3.7-1-1-1.3-.9-2.9-.9-4.4v-23c0-1.5-.2-3.1 1-4.3 1.1.2 2.2.1 3.1.8z"/><path class="st19" d="M323.8 512.3v-32c.7-.6 1.6-.6 2.4-.7.7.6.9 1.4.9 2.2-.1 9.7.3 19.5-.2 29.2-.2.8-.7 1.4-1.5 1.7-.6 0-1.1 0-1.6-.4z"/><path class="st35" d="M333.1 443.9c-.6 1.8-.7 3.6-.7 5.4v26.2c-.9-.1-1.7-.2-2.4-.8v-28.2c0-1.2-.6-2.8 1.4-3.2.6.1 1.2.1 1.7.6z"/><path class="st36" d="M317.7 439.6c0 10.6-.1 21.1-.1 31.7-1-.3-2.2.2-3.1-.6.7-1.2.7-2.5.7-3.8v-27.7c.9-.1 1.8-.2 2.5.4z"/><path class="st37" d="M332.4 509.8c1.2-.4 2.5-.8 3.7-1.2 1.1 4 1 8 .7 12-.1.9-.4 1.8-1.3 2.3-1.8-.7-3.7-1.3-5.5-2-1.6-2.9-.7-6-.8-9 0-.3.1-.7.3-1 .1-.3.4-.6.6-.8.7-.4 1.5-.7 2.3-.3z"/><path class="st38" d="M343.5 472.3c-1.1-.1-1.2-.8-1.2-1.7v-20.8c0-.6.2-1.2.8-1.6.9.2 1.7.6 2.3 1.3v18.2c0 1-.5 2.4 1.2 2.7.3 1-.5 1.2-1 1.7-.8.4-1.4.9-2.1.2z"/><path class="st39" d="M343.4 505.4c0 6.9 0 13.7-.1 20.6-1.2-.5-2.4-1-3.6-1.6-1-1.1-.9-2.4-.9-3.8 0-4.2 0-8.4-.1-12.5.1-1.2.8-1.8 1.7-2.3.5-.3 1.1-.6 1.7-.7.5 0 1 0 1.3.3z"/><path class="st40" d="M339.2 507.4c1.2 2.9.4 6 .6 8.9.1 2.7 0 5.4 0 8.2-1.5-.5-2.9-1.1-4.4-1.6 1.4-4.3.4-8.7.4-13.1 0-.4.2-.8.3-1.2l.6-.6c.4-.6 1-1 1.7-1 .3 0 .6.2.8.4z"/><path class="st15" d="M326.3 511.6v-32.1c.5-.5 1.2-.5 1.9-.5.8.8.9 1.8.9 2.8v27.5c0 .5-.1 1-.3 1.5-.6 1.1-1.4 1.5-2.5.8z"/><path class="st31" d="M328.1 511v-32c.5-.6 1.2-.6 1.9-.6 1 1 .9 2.2.9 3.4v25.1c0 1.2 0 2.5-.8 3.5 0 .2 0 .3-.1.5-.7.6-1.3.6-1.9.1z"/><path class="st41" d="M332.4 509.8l-1.8.6v-28.7c0-1.4-.4-2.9 1.2-3.8.3-.4.7-.6 1.2-.5V506c0 1.2.2 2.6-.6 3.8z"/><path class="st42" d="M350.8 467.4c.8-1.4 1.7-2.9 2.5-4.3.2 10.9.3 21.7-.1 32.6-.4.4-.8.8-1.2 1.3-1.2-.5-1.5-1.6-1.5-2.8.1-9-.2-17.9.3-26.8z"/><path class="st43" d="M328.1 511c.6 0 1.2-.1 1.8-.1v9.9c-1.5-.1-2.9-.6-4.3-1.3-1.8-2-2-5-.6-7.3.4-.2.8-.5 1.2-.7.7.1 1.4.2 1.9-.5z"/><path class="st44" d="M331.8 477.8c-.7 1.2-.6 2.5-.6 3.9v25.1c0 1.2.1 2.5-.6 3.6-.2.1-.4.1-.6.1v-32c.4-.6 1.1-.7 1.8-.7z"/><path class="st45" d="M311.5 482.7c-3 .6-6 1.4-9.1 1.3-2.6-1.6-1.7-3.6-.7-5.6 3.1.6 6.1 1.2 9.2 1.8 1 .7 1.4 1.4.6 2.5z"/><path class="st46" d="M325 512.3c.1 2.4-.4 4.9.6 7.3-2.3-.5-4.6-.9-6.8-1.8-1.2-1.9-1.2-3.4 1.2-4.2 1.2-.4 2.5-.8 3.7-1.3h1.3z"/><path class="st47" d="M301.7 478.5c.3 1.9-.7 3.9.7 5.6-1.3 1-2.9.4-4.3.6-1.3-2.2-.4-4.6-.6-6.9 1.4 0 2.9 0 4.2.7z"/><path class="st48" d="M320.1 513.5c-1.6 1.1-1.2 2.7-1.2 4.2-2.9-.6-5.7-1.3-8.6-1.9 3.1-1.2 6.5-1.6 9.8-2.3z"/><path class="st49" d="M311.5 482.7c.1-.9-.2-1.7-.6-2.4 1.9.1 3.8.5 5.5 1.3-1.5.8-3.2.9-4.9 1.1z"/><path class="st50" d="M350.8 467.4c1.1.9.6 2.1.7 3.1v22.6c0 1.3-.1 2.7.6 3.8-.4 1.5-1.3 2.7-2.5 3.7v-.1c-.7-.6-.9-1.4-.9-2.2.1-9.7-.3-19.4.2-29.1.6-.6 1.3-1.2 1.9-1.8z"/><path class="st51" d="M343.4 505.4c-.4 0-.8.1-1.2.1.5-9.3-.1-18.5.3-27.8.1-1.4-.3-2.8-.4-4.2.4-.4.9-.8 1.3-1.2l1.8-.6c1.7.3 1.5 1.7 1.5 2.9.1 8.6 0 17.1 0 25.7 0 1.1-.2 2-.9 2.9-.7.7-1.5 1.5-2.4 2.2z"/><path class="st52" d="M346 503.1c0-9.4 0-18.8-.1-28.2 0-1.1.4-2.3-.6-3.2l1.2-1.2h.6c1.7.3 1.5 1.7 1.5 2.9.1 8.4 0 16.9 0 25.3 0 1.2-.4 2.2-.9 3.2-.3.7-.9 1.1-1.7 1.2z"/><path class="st53" d="M347.8 501.8v-28.2c0-1.1.4-2.3-.6-3.2.4-.8 1-1.2 1.8-1.3 1.1.9.7 2.1.7 3.1v28.2c-.7.6-1.3 1-1.9 1.4z"/><path class="st13" d="M338.5 507.3c-.6.2-1.2.5-1.8.7v-28.5c0-1.1.6-2.6-1.3-3 .5-.4.9-.8 1.4-1.2.6 0 1.2-.1 1.7-.1 2.1 3.5 1.2 7.3 1.1 11-.1 5.3.3 10.5 0 15.8-.1 1.9.1 3.7-1.1 5.3z"/><path class="st54" d="M338.5 507.3c.2-8 .6-16 .4-24-.1-2.6.2-5.4-.4-8 .4-.4.9-.8 1.3-1.1h1.2c2.1.6 1.5 2.5 1.5 3.8-.1 8-.1 16 0 24 0 1.5-.1 3.1-1.4 4.2l-1.8 1.2c-.3-.1-.6-.1-.8-.1z"/><path class="st55" d="M341 506.1c.4-.8.6-1.7.6-2.6v-27.4c0-.7 0-1.4-.6-1.9l1.2-.6c1.8 1.5 1 3.5 1.1 5.3 0 5.7.3 11.4-.1 17.1-.2 3.2 1.3 6.6-.9 9.6-.3.4-.8.5-1.3.5z"/></g></g></g><g id="Layer_2" class="st0"><g class="st2"><path class="st63" d="M191.2 334h-10.7v-14.4l-4.2-7.9 4.2-7.8v-14.4h13.3v3.9h-9.4v11.5l-3.6 6.8 3.6 6.9v11.5h4.6l9.7-16.9V309h-2.6v-4h6.5v9.3zM219 334h10.7v-14.4l4.3-7.9-4.3-7.8v-14.4h-13.3v3.9h9.4v11.5l3.7 6.8-3.7 6.9v11.5h-4.5l-9.7-16.9V309h2.5v-4h-6.5v9.3z"/><path class="st3" d="M214.7 331.8l-4.6-7.9-3.6-6.2h-2.6l-3.6 6.2-4.6 7.9c-.2.3 0 .6.4.6h18.2c.3 0 .5-.4.4-.6zm-12.1-9.6c.2 0 .4.2.4.4s-.2.4-.4.4-.4-.2-.4-.4.2-.4.4-.4zm-1.1 4.6c-.5 0-.9-.4-.9-.9s.4-.9.9-.9.9.4.9.9-.4.9-.9.9zm1.5-1.8c-.3 0-.6-.3-.6-.6s.3-.6.6-.6.6.3.6.6-.2.6-.6.6z"/><circle class="st3" cx="204.1" cy="299.7" r="1.4"/><circle class="st3" cx="199.2" cy="295.6" r="1"/><circle class="st3" cx="209.6" cy="290.3" r="1"/><circle class="st3" cx="205.5" cy="294.2" r="2.4"/><circle class="st3" cx="201.3" cy="290.3" r="2"/><circle class="st3" cx="210.6" cy="298.3" r="1.6"/></g></g></svg>